<?xml version="1.0" standalone="no"?>
<!DOCTYPE svg PUBLIC "-//W3C//DTD SVG 20010904//EN"
 "http://www.w3.org/TR/2001/REC-SVG-20010904/DTD/svg10.dtd">
<svg version="1.0" xmlns="http://www.w3.org/2000/svg"
 width="512.000000pt" height="512.000000pt" viewBox="0 0 512.000000 512.000000"
 preserveAspectRatio="xMidYMid meet">

<g transform="translate(0.000000,512.000000) scale(0.100000,-0.100000)"
fill="#000000" stroke="none">
<path d="M0 2560 l0 -2560 2560 0 2560 0 0 2560 0 2560 -2560 0 -2560 0 0
-2560z m2394 790 c-10 -16 -27 -40 -39 -52 -74 -83 -84 -230 -20 -306 14 -17
25 -35 25 -41 0 -6 9 -11 19 -11 11 0 27 -9 35 -21 8 -12 19 -18 25 -15 5 4
29 -4 53 -16 54 -29 126 -28 167 2 33 23 51 26 51 8 0 -7 10 -1 21 14 11 15
26 25 34 22 9 -4 16 3 20 19 4 14 15 27 26 30 11 3 19 14 19 25 0 11 7 27 15
36 8 8 12 22 9 30 -3 9 -1 22 4 29 7 8 7 18 2 27 -5 9 -5 19 1 26 7 8 6 14 -1
19 -5 3 -10 15 -10 26 0 10 -5 19 -11 19 -6 0 -9 7 -5 15 3 8 -2 19 -12 24 -9
5 -14 13 -10 16 4 4 -3 17 -15 29 -21 20 -47 60 -47 71 0 3 8 5 18 5 23 -1 55
-26 48 -39 -4 -5 -2 -12 4 -16 5 -3 10 1 10 10 0 22 22 14 36 -13 6 -12 14
-19 18 -15 4 4 9 -3 13 -15 3 -12 9 -22 13 -22 10 0 43 -110 36 -118 -3 -3 -1
-11 5 -18 8 -10 7 -22 -4 -44 -9 -17 -11 -28 -6 -25 15 10 10 -32 -6 -45 -8
-7 -12 -16 -9 -21 3 -5 0 -18 -6 -29 -9 -17 -18 -20 -44 -16 -26 4 -38 1 -52
-16 -19 -21 -19 -21 3 -9 25 13 73 15 73 3 0 -5 -9 -17 -21 -27 -16 -16 -25
-17 -48 -8 -24 9 -33 7 -57 -11 -16 -12 -48 -28 -70 -35 l-42 -13 34 -30 c19
-17 34 -34 34 -39 0 -19 -41 -8 -73 21 -29 25 -43 30 -89 30 -45 0 -59 -4 -78
-25 -25 -26 -80 -35 -80 -12 1 15 43 46 78 57 l27 9 -30 -1 c-16 -1 -47 5 -67
12 -32 12 -40 12 -50 1 -11 -11 -10 -13 5 -8 18 7 67 -11 67 -24 0 -22 -72
-25 -90 -4 -7 8 -9 15 -4 15 5 0 -6 8 -25 18 -50 25 -51 42 -4 42 22 0 44 -5
51 -12 8 -8 12 -8 12 -1 0 15 -24 23 -68 23 -36 0 -72 23 -72 45 0 7 -7 18
-15 25 -8 7 -15 19 -15 26 0 10 6 11 26 4 32 -12 44 -13 44 -1 0 6 -14 11 -31
13 -35 3 -64 37 -41 45 10 4 9 9 -4 24 -26 29 -4 48 30 25 20 -12 24 -13 20
-2 -3 8 -16 17 -30 20 -23 6 -36 46 -15 46 5 0 7 9 4 20 -3 12 1 22 9 25 10 4
13 15 10 31 -5 29 21 34 37 7 14 -24 14 -7 1 18 -8 13 -7 25 1 40 12 23 24 16
32 -16 3 -14 5 -10 6 11 2 47 40 76 42 32 1 -21 2 -21 6 -3 6 22 21 35 41 35
10 0 9 -8 -4 -30z m164 -97 c2 -8 -5 -13 -17 -13 -18 0 -21 -6 -21 -40 l0 -40
50 0 50 0 0 35 c0 25 -6 37 -21 46 -33 17 -8 31 51 27 54 -3 78 -21 40 -31
-18 -5 -20 -13 -20 -97 0 -84 2 -92 20 -97 36 -10 15 -28 -35 -31 -53 -4 -82
13 -52 29 12 7 17 22 17 49 l0 40 -50 0 -50 0 0 -40 c0 -33 4 -42 22 -49 l22
-8 -21 -12 c-27 -14 -110 -15 -118 -1 -3 6 2 13 12 17 29 10 33 23 33 105 0
67 -3 79 -21 92 -12 8 -18 19 -14 26 9 15 117 9 123 -7z m291 -379 c11 -11
-34 -35 -57 -31 -21 4 -21 3 -7 -13 19 -21 10 -30 -30 -30 -39 0 -77 33 -50
44 9 3 25 6 36 6 10 0 19 5 19 10 0 22 70 33 89 14z m1173 -290 c65 -33 91
-107 63 -179 -22 -60 -63 -88 -134 -93 -43 -2 -63 2 -89 17 -66 42 -90 125
-56 196 35 75 133 101 216 59z m-3174 -6 c-3 -21 -9 -23 -80 -26 l-78 -3 0
-39 0 -40 70 0 c68 0 70 -1 70 -25 0 -24 -2 -25 -70 -25 l-70 0 0 -55 c0 -52
-1 -55 -25 -55 l-25 0 0 145 0 145 106 0 c104 0 105 0 102 -22z m102 -78 c0
-113 14 -140 70 -140 56 0 70 27 70 140 l0 100 31 0 31 0 -4 -110 c-3 -109 -3
-110 -36 -142 -29 -30 -38 -33 -92 -33 -51 0 -63 4 -85 26 -31 30 -44 81 -45
166 0 77 6 93 36 93 24 0 24 -1 24 -100z m478 78 c-3 -20 -10 -23 -50 -26
l-48 -3 0 -120 0 -119 -25 0 -25 0 0 120 0 120 -45 0 c-25 0 -45 4 -45 9 0 5
-3 16 -6 25 -5 14 9 16 121 16 125 0 126 0 123 -22z m92 -78 c0 -113 14 -140
70 -140 56 0 70 27 70 140 l0 100 30 0 30 0 0 -96 c0 -67 -5 -106 -16 -129
-21 -44 -73 -69 -131 -62 -83 9 -113 61 -113 197 l0 90 30 0 30 0 0 -100z
m450 85 c57 -29 68 -102 24 -154 -26 -32 -26 -40 9 -78 10 -12 16 -26 12 -32
-14 -23 -46 -10 -73 29 -23 34 -32 39 -64 40 -38 0 -38 0 -38 -40 0 -38 -2
-40 -30 -40 l-30 0 0 145 0 145 80 0 c53 0 91 -5 110 -15z m320 -10 c0 -25 -1
-25 -80 -25 l-80 0 0 -35 0 -35 70 0 c68 0 70 -1 70 -25 0 -24 -2 -25 -67 -25
l-68 0 -2 -35 -2 -35 79 0 c68 0 78 -2 83 -19 3 -11 2 -22 -1 -25 -3 -3 -52
-6 -109 -6 l-103 0 0 145 0 145 105 0 105 0 0 -25z m230 -35 l0 -60 70 0 70 0
0 60 0 60 30 0 30 0 0 -145 0 -145 -30 0 -30 0 0 60 0 60 -70 0 -70 0 0 -60
c0 -57 -1 -60 -25 -60 -25 0 -25 1 -26 93 -1 50 -3 103 -4 117 -6 50 6 80 31
80 23 0 24 -4 24 -60z m487 40 c46 -28 67 -65 67 -119 0 -58 -26 -103 -74
-130 -158 -89 -312 114 -178 235 30 28 43 32 103 33 33 1 61 -6 82 -19z m303
5 c37 -19 50 -43 50 -91 0 -27 -7 -46 -26 -66 l-27 -27 27 -36 c15 -19 24 -40
21 -45 -14 -22 -46 -9 -71 29 -20 30 -33 40 -60 43 -19 2 -37 2 -39 -1 -3 -2
-5 -22 -5 -43 0 -34 -3 -38 -25 -38 l-25 0 0 145 0 145 75 0 c48 0 87 -6 105
-15z m168 -127 l-3 -143 -27 -3 -28 -3 0 145 0 146 30 0 31 0 -3 -142z m272
121 c0 -23 -18 -51 -97 -151 l-54 -68 80 0 c81 0 96 -6 85 -34 -5 -14 -23 -16
-123 -14 -94 2 -116 6 -118 18 -2 8 33 60 76 115 l79 100 -76 5 c-70 5 -77 7
-80 28 -3 22 -2 22 112 22 111 0 116 -1 116 -21z m522 -71 l73 -92 3 92 3 92
29 0 30 0 0 -145 0 -145 -24 0 c-18 0 -42 22 -97 91 l-74 91 -3 -91 -3 -91
-29 0 -30 0 0 145 0 145 24 0 c19 0 42 -22 98 -92z m-1064 -414 c12 -8 22 -19
22 -25 0 -16 -29 -22 -45 -9 -20 17 -90 16 -110 0 -9 -8 -15 -25 -13 -39 3
-22 12 -29 58 -43 81 -26 98 -38 111 -75 20 -61 -27 -103 -114 -103 -43 0
-108 26 -114 46 -6 19 27 25 52 8 32 -21 114 -15 129 9 18 28 -4 50 -75 74
-97 34 -124 83 -76 138 37 43 121 52 175 19z m-2066 -100 c3 -108 5 -117 27
-135 23 -19 65 -25 96 -13 32 13 45 59 45 164 0 93 1 100 20 100 19 0 20 -7
20 -110 0 -125 -11 -160 -60 -185 -35 -18 -97 -19 -128 -1 -50 27 -62 62 -62
184 0 104 1 112 19 112 18 0 20 -10 23 -116z m448 11 c44 -57 85 -107 90 -110
6 -4 10 36 10 104 0 104 1 111 20 111 19 0 20 -7 20 -156 0 -148 -1 -155 -19
-152 -11 2 -58 52 -105 112 l-86 109 0 -111 0 -112 -25 0 -25 0 0 155 c0 147
1 155 19 155 13 0 47 -36 101 -105z m320 -51 l0 -155 -22 3 c-23 3 -23 6 -26
156 l-3 152 26 0 25 0 0 -156z m180 31 l48 -120 24 55 c13 30 37 85 53 123 20
48 33 67 47 67 10 0 18 -3 18 -7 0 -5 -28 -75 -62 -156 -77 -185 -82 -186
-143 -37 -23 58 -52 127 -64 153 l-21 48 26 -3 c24 -3 32 -16 74 -123z m490
105 c0 -18 -7 -20 -85 -20 l-85 0 0 -45 0 -45 75 0 c68 0 75 -2 75 -20 0 -18
-7 -20 -75 -20 l-75 0 0 -50 0 -50 85 0 c78 0 85 -2 85 -20 0 -19 -7 -20 -105
-20 l-105 0 0 155 0 155 105 0 c98 0 105 -1 105 -20z m311 -9 c23 -24 29 -38
29 -74 0 -37 -5 -50 -29 -73 l-29 -27 34 -54 35 -54 -28 3 c-20 2 -34 15 -53
48 -24 42 -29 45 -72 48 l-45 3 3 -33 c6 -44 -4 -68 -27 -68 -18 0 -19 8 -19
155 l0 155 86 0 c81 0 87 -1 115 -29z m499 -126 c0 -148 -1 -155 -20 -155 -19
0 -20 7 -20 155 0 148 1 155 20 155 19 0 20 -7 20 -155z m355 135 c0 -11 -14
-16 -52 -18 l-53 -3 0 -135 0 -134 -25 0 -25 0 0 134 0 135 -47 3 c-36 2 -49
7 -51 21 -3 16 6 17 125 15 106 -3 128 -6 128 -18z m149 -55 c22 -41 42 -75
46 -75 3 0 24 33 47 73 28 50 47 73 62 75 11 2 21 2 21 -1 0 -2 -25 -48 -55
-103 -47 -84 -55 -107 -55 -151 0 -46 -3 -53 -20 -53 -17 0 -20 7 -20 51 0 43
-9 68 -56 155 -53 100 -55 104 -32 104 18 0 31 -15 62 -75z"/>
<path d="M2860 3260 c0 -5 5 -10 11 -10 5 0 7 5 4 10 -3 6 -8 10 -11 10 -2 0
-4 -4 -4 -10z"/>
<path d="M2257 3223 c-4 -3 -7 -11 -7 -17 0 -6 5 -5 12 2 6 6 9 14 7 17 -3 3
-9 2 -12 -2z"/>
<path d="M2875 3220 c3 -5 8 -10 11 -10 2 0 4 5 4 10 0 6 -5 10 -11 10 -5 0
-7 -4 -4 -10z"/>
<path d="M2890 3186 c0 -9 5 -16 10 -16 6 0 10 4 10 9 0 6 -4 13 -10 16 -5 3
-10 -1 -10 -9z"/>
<path d="M2895 3140 c-8 -13 -1 -24 14 -19 6 3 7 10 2 18 -6 10 -10 10 -16 1z"/>
<path d="M2893 3085 c-9 -20 -8 -25 3 -25 8 0 14 10 14 25 0 31 -2 31 -17 0z"/>
<path d="M2242 3071 c-11 -7 -11 -9 2 -14 10 -4 16 -1 16 8 0 17 -1 17 -18 6z"/>
<path d="M2876 3015 c-25 -18 -16 -34 11 -20 12 6 19 16 15 22 -5 8 -12 7 -26
-2z"/>
<path d="M2310 2969 c0 -5 -4 -8 -9 -5 -5 4 -20 2 -33 -3 -21 -9 -19 -10 15
-10 26 -1 37 3 37 14 0 8 -2 15 -5 15 -3 0 -5 -5 -5 -11z"/>
<path d="M2558 2843 c12 -2 32 -2 45 0 12 2 2 4 -23 4 -25 0 -35 -2 -22 -4z"/>
<path d="M3887 2539 c-24 -14 -49 -72 -41 -96 13 -41 28 -61 51 -72 69 -32
143 13 143 87 0 57 -35 92 -92 92 -24 0 -51 -5 -61 -11z"/>
<path d="M1840 2495 l0 -55 34 0 c77 0 113 38 82 85 -14 21 -24 25 -66 25
l-50 0 0 -55z"/>
<path d="M2883 2545 c-39 -17 -53 -42 -53 -93 0 -111 166 -124 186 -15 15 78
-61 139 -133 108z"/>
<path d="M3180 2495 l0 -55 45 0 c32 0 51 6 65 20 44 44 12 90 -63 90 l-47 0
0 -55z"/>
<path d="M2735 2008 l0 -63 52 -3 c66 -4 99 22 89 71 -10 48 -23 57 -85 57
l-57 0 1 -62z"/>
</g>
</svg>
